<mxfile host="Electron" agent="Mozilla/5.0 (X11; Linux x86_64) AppleWebKit/537.36 (KHTML, like Gecko) draw.io/26.2.15 Chrome/134.0.6998.205 Electron/35.2.1 Safari/537.36" version="26.2.15">
  <diagram name="Page-1" id="MiJEuCpT9NjwfFieidVq">
    <mxGraphModel dx="1598" dy="1808" grid="1" gridSize="10" guides="1" tooltips="1" connect="1" arrows="1" fold="1" page="1" pageScale="1" pageWidth="1169" pageHeight="827" math="0" shadow="0">
      <root>
        <mxCell id="0" />
        <mxCell id="1" parent="0" />
        <mxCell id="gC7rNWVobuKy68LmjTvz-1" value="&lt;b style=&quot;font-size: 14px;&quot;&gt;&lt;font color=&quot;#233b37&quot; style=&quot;font-size: 14px;&quot;&gt;Pacientas&lt;/font&gt;&lt;/b&gt;" style="shape=umlActor;verticalLabelPosition=bottom;verticalAlign=top;html=1;outlineConnect=0;fillColor=#67AB9F;strokeColor=#233B37;fontSize=14;" vertex="1" parent="1">
          <mxGeometry x="150" y="120" width="30" height="60" as="geometry" />
        </mxCell>
        <mxCell id="gC7rNWVobuKy68LmjTvz-2" value="&lt;p style=&quot;line-height: 90%;&quot;&gt;&lt;span style=&quot;font-size: 16px;&quot;&gt;&lt;b&gt;Savarankiškos suverenios pseudonimizuotos tapatybės&amp;nbsp;&lt;/b&gt;&lt;/span&gt;&lt;b style=&quot;font-size: 16px; background-color: transparent; color: light-dark(rgb(0, 0, 0), rgb(255, 255, 255));&quot;&gt;valdymo sistema&lt;/b&gt;&lt;/p&gt;" style="shape=umlFrame;whiteSpace=wrap;html=1;pointerEvents=0;width=360;height=40;align=left;fillColor=#ffe6cc;strokeColor=#302300;fontSize=14;" vertex="1" parent="1">
          <mxGeometry x="250" y="-50" width="440" height="590" as="geometry" />
        </mxCell>
        <mxCell id="gC7rNWVobuKy68LmjTvz-3" value="&lt;font face=&quot;Georgia&quot;&gt;Užsiregistruoti sistemoje&lt;/font&gt;" style="ellipse;whiteSpace=wrap;html=1;fillColor=#C7EDEA;fontSize=14;" vertex="1" parent="1">
          <mxGeometry x="280" y="20" width="150" height="50" as="geometry" />
        </mxCell>
        <mxCell id="gC7rNWVobuKy68LmjTvz-4" value="&lt;font face=&quot;Georgia&quot;&gt;Įkelti biologinius duomenis&lt;/font&gt;" style="ellipse;whiteSpace=wrap;html=1;fillColor=#C7EDEA;fontSize=14;" vertex="1" parent="1">
          <mxGeometry x="280" y="82.5" width="150" height="55" as="geometry" />
        </mxCell>
        <mxCell id="gC7rNWVobuKy68LmjTvz-7" value="" style="endArrow=none;endFill=1;endSize=12;html=1;rounded=0;entryX=0;entryY=1;entryDx=0;entryDy=0;fontSize=14;startFill=0;" edge="1" parent="1" target="gC7rNWVobuKy68LmjTvz-3">
          <mxGeometry width="160" relative="1" as="geometry">
            <mxPoint x="190" y="120" as="sourcePoint" />
            <mxPoint x="330" y="180" as="targetPoint" />
          </mxGeometry>
        </mxCell>
        <mxCell id="gC7rNWVobuKy68LmjTvz-8" value="" style="endArrow=none;endFill=1;endSize=12;html=1;rounded=0;entryX=0;entryY=0.5;entryDx=0;entryDy=0;fontSize=14;startFill=0;" edge="1" parent="1" target="gC7rNWVobuKy68LmjTvz-45">
          <mxGeometry width="160" relative="1" as="geometry">
            <mxPoint x="190" y="160" as="sourcePoint" />
            <mxPoint x="294" y="110" as="targetPoint" />
          </mxGeometry>
        </mxCell>
        <mxCell id="gC7rNWVobuKy68LmjTvz-11" value="&lt;b style=&quot;font-size: 14px;&quot;&gt;&lt;font color=&quot;#542625&quot; style=&quot;font-size: 14px;&quot;&gt;Gydytojas -&lt;/font&gt;&lt;/b&gt;&lt;div&gt;&lt;b style=&quot;background-color: transparent; color: light-dark(rgb(0, 0, 0), rgb(255, 255, 255));&quot;&gt;&lt;font color=&quot;#542625&quot;&gt;genetikas&lt;/font&gt;&lt;/b&gt;&lt;/div&gt;" style="shape=umlActor;verticalLabelPosition=bottom;verticalAlign=top;html=1;outlineConnect=0;fillColor=#EA6B66;strokeColor=#542625;fontSize=14;" vertex="1" parent="1">
          <mxGeometry x="750" y="325" width="30" height="60" as="geometry" />
        </mxCell>
        <mxCell id="gC7rNWVobuKy68LmjTvz-12" value="&lt;font face=&quot;Georgia&quot;&gt;Įkelti biologinius duomenis&lt;/font&gt;" style="ellipse;whiteSpace=wrap;html=1;fillColor=#FAE3E3;fontSize=14;" vertex="1" parent="1">
          <mxGeometry x="490" y="270" width="150" height="50" as="geometry" />
        </mxCell>
        <mxCell id="gC7rNWVobuKy68LmjTvz-14" value="&lt;font face=&quot;Georgia&quot;&gt;Sukurti paciento&lt;/font&gt;&lt;div&gt;&lt;font face=&quot;Georgia&quot;&gt;analizės kortelę&lt;/font&gt;&lt;/div&gt;" style="ellipse;whiteSpace=wrap;html=1;fillColor=#FAE3E3;fontSize=14;" vertex="1" parent="1">
          <mxGeometry x="490" y="330" width="150" height="50" as="geometry" />
        </mxCell>
        <mxCell id="gC7rNWVobuKy68LmjTvz-15" value="&lt;font face=&quot;Georgia&quot;&gt;Išsiųsti užklausą analizės atlikimui&lt;/font&gt;" style="ellipse;whiteSpace=wrap;html=1;fillColor=#FAE3E3;fontSize=14;" vertex="1" parent="1">
          <mxGeometry x="490" y="390" width="150" height="50" as="geometry" />
        </mxCell>
        <mxCell id="gC7rNWVobuKy68LmjTvz-16" value="" style="endArrow=none;endFill=1;endSize=12;html=1;rounded=0;entryX=1;entryY=1;entryDx=0;entryDy=0;fontSize=14;startFill=0;" edge="1" parent="1" target="gC7rNWVobuKy68LmjTvz-12">
          <mxGeometry width="160" relative="1" as="geometry">
            <mxPoint x="740" y="340" as="sourcePoint" />
            <mxPoint x="240" y="390" as="targetPoint" />
          </mxGeometry>
        </mxCell>
        <mxCell id="gC7rNWVobuKy68LmjTvz-18" value="&lt;font face=&quot;Georgia&quot;&gt;Peržiūrėti pacientų analizių atlikimo&lt;/font&gt;&lt;div&gt;&lt;font face=&quot;Georgia&quot;&gt;būseną&lt;/font&gt;&lt;/div&gt;" style="ellipse;whiteSpace=wrap;html=1;fillColor=#FAE3E3;fontSize=14;" vertex="1" parent="1">
          <mxGeometry x="490" y="450" width="150" height="70" as="geometry" />
        </mxCell>
        <mxCell id="gC7rNWVobuKy68LmjTvz-19" value="&lt;font face=&quot;Georgia&quot;&gt;Užsiregistruoti sistemoje&lt;/font&gt;" style="ellipse;whiteSpace=wrap;html=1;fillColor=#FAE3E3;fontSize=14;" vertex="1" parent="1">
          <mxGeometry x="490" y="210" width="150" height="50" as="geometry" />
        </mxCell>
        <mxCell id="gC7rNWVobuKy68LmjTvz-20" value="" style="endArrow=none;endFill=1;endSize=12;html=1;rounded=0;entryX=1;entryY=1;entryDx=0;entryDy=0;fontSize=14;startFill=0;" edge="1" parent="1" target="gC7rNWVobuKy68LmjTvz-19">
          <mxGeometry width="160" relative="1" as="geometry">
            <mxPoint x="740" y="330" as="sourcePoint" />
            <mxPoint x="210" y="470" as="targetPoint" />
          </mxGeometry>
        </mxCell>
        <mxCell id="gC7rNWVobuKy68LmjTvz-31" value="&lt;b style=&quot;font-size: 14px;&quot;&gt;&lt;font color=&quot;#141463&quot; style=&quot;font-size: 14px;&quot;&gt;Tyrėjas&lt;/font&gt;&lt;/b&gt;" style="shape=umlActor;verticalLabelPosition=bottom;verticalAlign=top;html=1;outlineConnect=0;fillColor=#3333FF;strokeColor=#141463;fontSize=14;" vertex="1" parent="1">
          <mxGeometry x="760" y="80" width="30" height="60" as="geometry" />
        </mxCell>
        <mxCell id="gC7rNWVobuKy68LmjTvz-32" value="&lt;font face=&quot;Georgia&quot;&gt;Užsiregistruoti&lt;/font&gt;&lt;div&gt;&lt;font face=&quot;Georgia&quot;&gt;sistemoje&lt;/font&gt;&lt;/div&gt;" style="ellipse;whiteSpace=wrap;html=1;fillColor=#ECEBFF;fontSize=14;" vertex="1" parent="1">
          <mxGeometry x="490" y="10" width="150" height="50" as="geometry" />
        </mxCell>
        <mxCell id="gC7rNWVobuKy68LmjTvz-35" value="" style="endArrow=none;endFill=1;endSize=12;html=1;rounded=0;entryX=1;entryY=1;entryDx=0;entryDy=0;fontSize=14;startFill=0;" edge="1" parent="1" target="gC7rNWVobuKy68LmjTvz-32">
          <mxGeometry width="160" relative="1" as="geometry">
            <mxPoint x="750" y="90" as="sourcePoint" />
            <mxPoint x="740" y="50" as="targetPoint" />
          </mxGeometry>
        </mxCell>
        <mxCell id="gC7rNWVobuKy68LmjTvz-45" value="&lt;font style=&quot;line-height: 0%;&quot; face=&quot;Georgia&quot;&gt;Valdyti prieigą prie asmeninių biologinių duomenų&lt;/font&gt;" style="ellipse;whiteSpace=wrap;html=1;fillColor=#C7EDEA;fontSize=14;" vertex="1" parent="1">
          <mxGeometry x="280" y="150" width="150" height="70" as="geometry" />
        </mxCell>
        <mxCell id="gC7rNWVobuKy68LmjTvz-46" value="" style="endArrow=none;endFill=1;endSize=12;html=1;rounded=0;entryX=0;entryY=0.5;entryDx=0;entryDy=0;fontSize=14;startFill=0;" edge="1" parent="1" target="gC7rNWVobuKy68LmjTvz-4">
          <mxGeometry width="160" relative="1" as="geometry">
            <mxPoint x="190" y="140" as="sourcePoint" />
            <mxPoint x="290" y="215" as="targetPoint" />
          </mxGeometry>
        </mxCell>
        <mxCell id="gC7rNWVobuKy68LmjTvz-47" value="" style="endArrow=none;endFill=1;endSize=12;html=1;rounded=0;entryX=0;entryY=0;entryDx=0;entryDy=0;fontSize=14;startFill=0;" edge="1" parent="1" target="gC7rNWVobuKy68LmjTvz-48">
          <mxGeometry width="160" relative="1" as="geometry">
            <mxPoint x="190" y="180" as="sourcePoint" />
            <mxPoint x="294" y="200" as="targetPoint" />
          </mxGeometry>
        </mxCell>
        <mxCell id="gC7rNWVobuKy68LmjTvz-48" value="&lt;font style=&quot;line-height: 0%;&quot; face=&quot;Georgia&quot;&gt;Pateikti prašymą „būti pamirštam“&lt;/font&gt;" style="ellipse;whiteSpace=wrap;html=1;fillColor=#C7EDEA;fontSize=14;" vertex="1" parent="1">
          <mxGeometry x="280" y="230" width="150" height="60" as="geometry" />
        </mxCell>
        <mxCell id="gC7rNWVobuKy68LmjTvz-49" value="&lt;font face=&quot;Georgia&quot;&gt;Atlikti biologinių duomenų analizę&lt;/font&gt;" style="ellipse;whiteSpace=wrap;html=1;fillColor=#ECEBFF;fontSize=14;" vertex="1" parent="1">
          <mxGeometry x="490" y="70" width="150" height="50" as="geometry" />
        </mxCell>
        <mxCell id="gC7rNWVobuKy68LmjTvz-50" value="&lt;font face=&quot;Georgia&quot;&gt;Pateikti analizės rezultatus&lt;/font&gt;" style="ellipse;whiteSpace=wrap;html=1;fillColor=#ECEBFF;fontSize=14;" vertex="1" parent="1">
          <mxGeometry x="490" y="130" width="150" height="50" as="geometry" />
        </mxCell>
        <mxCell id="gC7rNWVobuKy68LmjTvz-51" value="" style="endArrow=none;endFill=1;endSize=12;html=1;rounded=0;entryX=1;entryY=0.5;entryDx=0;entryDy=0;fontSize=14;startFill=0;" edge="1" parent="1" target="gC7rNWVobuKy68LmjTvz-49">
          <mxGeometry width="160" relative="1" as="geometry">
            <mxPoint x="750" y="100" as="sourcePoint" />
            <mxPoint x="661" y="45" as="targetPoint" />
          </mxGeometry>
        </mxCell>
        <mxCell id="gC7rNWVobuKy68LmjTvz-52" value="" style="endArrow=none;endFill=1;endSize=12;html=1;rounded=0;entryX=1;entryY=0;entryDx=0;entryDy=0;fontSize=14;startFill=0;" edge="1" parent="1" target="gC7rNWVobuKy68LmjTvz-50">
          <mxGeometry width="160" relative="1" as="geometry">
            <mxPoint x="750" y="110" as="sourcePoint" />
            <mxPoint x="661" y="105" as="targetPoint" />
          </mxGeometry>
        </mxCell>
        <mxCell id="gC7rNWVobuKy68LmjTvz-54" value="" style="endArrow=none;endFill=1;endSize=12;html=1;rounded=0;entryX=1;entryY=0.5;entryDx=0;entryDy=0;fontSize=14;startFill=0;" edge="1" parent="1" target="gC7rNWVobuKy68LmjTvz-14">
          <mxGeometry width="160" relative="1" as="geometry">
            <mxPoint x="740" y="355" as="sourcePoint" />
            <mxPoint x="628" y="323" as="targetPoint" />
          </mxGeometry>
        </mxCell>
        <mxCell id="gC7rNWVobuKy68LmjTvz-55" value="" style="endArrow=none;endFill=1;endSize=12;html=1;rounded=0;entryX=1;entryY=0;entryDx=0;entryDy=0;fontSize=14;startFill=0;" edge="1" parent="1" target="gC7rNWVobuKy68LmjTvz-15">
          <mxGeometry width="160" relative="1" as="geometry">
            <mxPoint x="740" y="370" as="sourcePoint" />
            <mxPoint x="650" y="365" as="targetPoint" />
          </mxGeometry>
        </mxCell>
        <mxCell id="gC7rNWVobuKy68LmjTvz-56" value="" style="endArrow=none;endFill=1;endSize=12;html=1;rounded=0;entryX=1;entryY=0;entryDx=0;entryDy=0;fontSize=14;startFill=0;" edge="1" parent="1" target="gC7rNWVobuKy68LmjTvz-18">
          <mxGeometry width="160" relative="1" as="geometry">
            <mxPoint x="740" y="380" as="sourcePoint" />
            <mxPoint x="628" y="407" as="targetPoint" />
          </mxGeometry>
        </mxCell>
      </root>
    </mxGraphModel>
  </diagram>
</mxfile>
